<?xml version="1.0" encoding="UTF-8" standalone="no"?>
<!DOCTYPE svg PUBLIC "-//W3C//DTD SVG 1.1//EN"
 "http://www.w3.org/Graphics/SVG/1.1/DTD/svg11.dtd">
<!-- Generated by graphviz version 2.40.1 (20161225.0304)
 -->
<!-- Title: %3 Pages: 1 -->
<svg width="2273pt" height="404pt"
 viewBox="0.00 0.00 2272.98 404.00" xmlns="http://www.w3.org/2000/svg" xmlns:xlink="http://www.w3.org/1999/xlink">
<g id="graph0" class="graph" transform="scale(1 1) rotate(0) translate(4 400)">
<title>%3</title>
<polygon fill="#ffffff" stroke="transparent" points="-4,4 -4,-400 2268.9812,-400 2268.9812,4 -4,4"/>
<!-- [root] aws_instance.secondserver -->
<g id="node1" class="node">
<title>[root] aws_instance.secondserver</title>
<polygon fill="none" stroke="#000000" points="292.2042,-252 124.7684,-252 124.7684,-216 292.2042,-216 292.2042,-252"/>
<text text-anchor="middle" x="208.4863" y="-229.8" font-family="Times,serif" font-size="14.00" fill="#000000">aws_instance.secondserver</text>
</g>
<!-- [root] aws_subnet.subnet2 -->
<g id="node4" class="node">
<title>[root] aws_subnet.subnet2</title>
<polygon fill="none" stroke="#000000" points="281.8629,-180 153.1098,-180 153.1098,-144 281.8629,-144 281.8629,-180"/>
<text text-anchor="middle" x="217.4863" y="-157.8" font-family="Times,serif" font-size="14.00" fill="#000000">aws_subnet.subnet2</text>
</g>
<!-- [root] aws_instance.secondserver&#45;&gt;[root] aws_subnet.subnet2 -->
<g id="edge1" class="edge">
<title>[root] aws_instance.secondserver&#45;&gt;[root] aws_subnet.subnet2</title>
<path fill="none" stroke="#000000" d="M210.7574,-215.8314C211.72,-208.131 212.8645,-198.9743 213.9342,-190.4166"/>
<polygon fill="#000000" stroke="#000000" points="217.4172,-190.7702 215.1847,-180.4133 210.4713,-189.9019 217.4172,-190.7702"/>
</g>
<!-- [root] data.aws_ami.ubuntu -->
<g id="node8" class="node">
<title>[root] data.aws_ami.ubuntu</title>
<polygon fill="none" stroke="#000000" points="134.959,-180 .0137,-180 .0137,-144 134.959,-144 134.959,-180"/>
<text text-anchor="middle" x="67.4863" y="-157.8" font-family="Times,serif" font-size="14.00" fill="#000000">data.aws_ami.ubuntu</text>
</g>
<!-- [root] aws_instance.secondserver&#45;&gt;[root] data.aws_ami.ubuntu -->
<g id="edge2" class="edge">
<title>[root] aws_instance.secondserver&#45;&gt;[root] data.aws_ami.ubuntu</title>
<path fill="none" stroke="#000000" d="M172.9061,-215.8314C154.4538,-206.4089 131.7318,-194.8062 112.1134,-184.7883"/>
<polygon fill="#000000" stroke="#000000" points="113.553,-181.5935 103.0552,-180.1628 110.3695,-187.8278 113.553,-181.5935"/>
</g>
<!-- [root] aws_security_group.subnetsecurity -->
<g id="node2" class="node">
<title>[root] aws_security_group.subnetsecurity</title>
<polygon fill="none" stroke="#000000" points="562.1075,-252 348.8652,-252 348.8652,-216 562.1075,-216 562.1075,-252"/>
<text text-anchor="middle" x="455.4863" y="-229.8" font-family="Times,serif" font-size="14.00" fill="#000000">aws_security_group.subnetsecurity</text>
</g>
<!-- [root] aws_vpc.environment&#45;example&#45;two -->
<g id="node5" class="node">
<title>[root] aws_vpc.environment&#45;example&#45;two</title>
<polygon fill="none" stroke="#000000" points="398.9766,-108 181.9961,-108 181.9961,-72 398.9766,-72 398.9766,-108"/>
<text text-anchor="middle" x="290.4863" y="-85.8" font-family="Times,serif" font-size="14.00" fill="#000000">aws_vpc.environment&#45;example&#45;two</text>
</g>
<!-- [root] aws_security_group.subnetsecurity&#45;&gt;[root] aws_vpc.environment&#45;example&#45;two -->
<g id="edge3" class="edge">
<title>[root] aws_security_group.subnetsecurity&#45;&gt;[root] aws_vpc.environment&#45;example&#45;two</title>
<path fill="none" stroke="#000000" d="M456.5167,-215.8898C456.6574,-195.9498 453.812,-164.0638 436.4863,-144 424.4892,-130.1069 408.5806,-119.7847 391.6807,-112.1166"/>
<polygon fill="#000000" stroke="#000000" points="392.7827,-108.7829 382.2084,-108.1238 390.0637,-115.2333 392.7827,-108.7829"/>
</g>
<!-- [root] aws_subnet.subnet1 -->
<g id="node3" class="node">
<title>[root] aws_subnet.subnet1</title>
<polygon fill="none" stroke="#000000" points="427.8629,-180 299.1098,-180 299.1098,-144 427.8629,-144 427.8629,-180"/>
<text text-anchor="middle" x="363.4863" y="-157.8" font-family="Times,serif" font-size="14.00" fill="#000000">aws_subnet.subnet1</text>
</g>
<!-- [root] aws_subnet.subnet1&#45;&gt;[root] aws_vpc.environment&#45;example&#45;two -->
<g id="edge4" class="edge">
<title>[root] aws_subnet.subnet1&#45;&gt;[root] aws_vpc.environment&#45;example&#45;two</title>
<path fill="none" stroke="#000000" d="M345.0653,-143.8314C336.3334,-135.219 325.7546,-124.7851 316.244,-115.4048"/>
<polygon fill="#000000" stroke="#000000" points="318.4789,-112.6931 308.9014,-108.1628 313.5634,-117.6769 318.4789,-112.6931"/>
</g>
<!-- [root] aws_subnet.subnet2&#45;&gt;[root] aws_vpc.environment&#45;example&#45;two -->
<g id="edge5" class="edge">
<title>[root] aws_subnet.subnet2&#45;&gt;[root] aws_vpc.environment&#45;example&#45;two</title>
<path fill="none" stroke="#000000" d="M235.9073,-143.8314C244.6393,-135.219 255.2181,-124.7851 264.7286,-115.4048"/>
<polygon fill="#000000" stroke="#000000" points="267.4093,-117.6769 272.0712,-108.1628 262.4938,-112.6931 267.4093,-117.6769"/>
</g>
<!-- [root] provider.aws -->
<g id="node13" class="node">
<title>[root] provider.aws</title>
<polygon fill="none" stroke="#000000" points="219.4863,-36 140.878,-18 219.4863,0 298.0947,-18 219.4863,-36"/>
<text text-anchor="middle" x="219.4863" y="-13.8" font-family="Times,serif" font-size="14.00" fill="#000000">provider.aws</text>
</g>
<!-- [root] aws_vpc.environment&#45;example&#45;two&#45;&gt;[root] provider.aws -->
<g id="edge6" class="edge">
<title>[root] aws_vpc.environment&#45;example&#45;two&#45;&gt;[root] provider.aws</title>
<path fill="none" stroke="#000000" d="M272.57,-71.8314C263.1421,-62.2706 251.5005,-50.4651 241.5241,-40.3481"/>
<polygon fill="#000000" stroke="#000000" points="243.7974,-37.6688 234.2838,-33.0059 238.8132,-42.5838 243.7974,-37.6688"/>
</g>
<!-- [root] azurerm_resource_group.azy_network -->
<g id="node6" class="node">
<title>[root] azurerm_resource_group.azy_network</title>
<polygon fill="none" stroke="#000000" points="1622.2218,-180 1390.7508,-180 1390.7508,-144 1622.2218,-144 1622.2218,-180"/>
<text text-anchor="middle" x="1506.4863" y="-157.8" font-family="Times,serif" font-size="14.00" fill="#000000">azurerm_resource_group.azy_network</text>
</g>
<!-- [root] provider.azurerm -->
<g id="node14" class="node">
<title>[root] provider.azurerm</title>
<polygon fill="none" stroke="#000000" points="1359.4863,-108 1259.3501,-90 1359.4863,-72 1459.6226,-90 1359.4863,-108"/>
<text text-anchor="middle" x="1359.4863" y="-85.8" font-family="Times,serif" font-size="14.00" fill="#000000">provider.azurerm</text>
</g>
<!-- [root] azurerm_resource_group.azy_network&#45;&gt;[root] provider.azurerm -->
<g id="edge7" class="edge">
<title>[root] azurerm_resource_group.azy_network&#45;&gt;[root] provider.azurerm</title>
<path fill="none" stroke="#000000" d="M1469.392,-143.8314C1446.9166,-132.823 1418.365,-118.8385 1395.996,-107.8823"/>
<polygon fill="#000000" stroke="#000000" points="1397.3438,-104.6452 1386.8236,-103.3897 1394.2647,-110.9316 1397.3438,-104.6452"/>
</g>
<!-- [root] azurerm_virtual_network.blue_virtual_network -->
<g id="node7" class="node">
<title>[root] azurerm_virtual_network.blue_virtual_network</title>
<polygon fill="none" stroke="#000000" points="1794.7873,-252 1512.1854,-252 1512.1854,-216 1794.7873,-216 1794.7873,-252"/>
<text text-anchor="middle" x="1653.4863" y="-229.8" font-family="Times,serif" font-size="14.00" fill="#000000">azurerm_virtual_network.blue_virtual_network</text>
</g>
<!-- [root] azurerm_virtual_network.blue_virtual_network&#45;&gt;[root] azurerm_resource_group.azy_network -->
<g id="edge8" class="edge">
<title>[root] azurerm_virtual_network.blue_virtual_network&#45;&gt;[root] azurerm_resource_group.azy_network</title>
<path fill="none" stroke="#000000" d="M1616.392,-215.8314C1596.9938,-206.3302 1573.0693,-194.6121 1552.5002,-184.5374"/>
<polygon fill="#000000" stroke="#000000" points="1553.8341,-181.2935 1543.3139,-180.038 1550.755,-187.5799 1553.8341,-181.2935"/>
</g>
<!-- [root] data.aws_ami.ubuntu&#45;&gt;[root] provider.aws -->
<g id="edge9" class="edge">
<title>[root] data.aws_ami.ubuntu&#45;&gt;[root] provider.aws</title>
<path fill="none" stroke="#000000" d="M86.7372,-143.7623C114.75,-117.2239 166.6607,-68.0453 196.5943,-39.6872"/>
<polygon fill="#000000" stroke="#000000" points="199.2074,-42.0329 204.0598,-32.6146 194.3932,-36.9512 199.2074,-42.0329"/>
</g>
<!-- [root] google_compute_instance.firstserver -->
<g id="node9" class="node">
<title>[root] google_compute_instance.firstserver</title>
<polygon fill="none" stroke="#000000" points="2034.1526,-252 1812.8201,-252 1812.8201,-216 2034.1526,-216 2034.1526,-252"/>
<text text-anchor="middle" x="1923.4863" y="-229.8" font-family="Times,serif" font-size="14.00" fill="#000000">google_compute_instance.firstserver</text>
</g>
<!-- [root] google_compute_subnetwork.dev&#45;subnet -->
<g id="node11" class="node">
<title>[root] google_compute_subnetwork.dev&#45;subnet</title>
<polygon fill="none" stroke="#000000" points="2046.5492,-180 1800.4234,-180 1800.4234,-144 2046.5492,-144 2046.5492,-180"/>
<text text-anchor="middle" x="1923.4863" y="-157.8" font-family="Times,serif" font-size="14.00" fill="#000000">google_compute_subnetwork.dev&#45;subnet</text>
</g>
<!-- [root] google_compute_instance.firstserver&#45;&gt;[root] google_compute_subnetwork.dev&#45;subnet -->
<g id="edge10" class="edge">
<title>[root] google_compute_instance.firstserver&#45;&gt;[root] google_compute_subnetwork.dev&#45;subnet</title>
<path fill="none" stroke="#000000" d="M1923.4863,-215.8314C1923.4863,-208.131 1923.4863,-198.9743 1923.4863,-190.4166"/>
<polygon fill="#000000" stroke="#000000" points="1926.9864,-190.4132 1923.4863,-180.4133 1919.9864,-190.4133 1926.9864,-190.4132"/>
</g>
<!-- [root] google_compute_network.our_development_network -->
<g id="node10" class="node">
<title>[root] google_compute_network.our_development_network</title>
<polygon fill="none" stroke="#000000" points="1793.5218,-108 1477.4508,-108 1477.4508,-72 1793.5218,-72 1793.5218,-108"/>
<text text-anchor="middle" x="1635.4863" y="-85.8" font-family="Times,serif" font-size="14.00" fill="#000000">google_compute_network.our_development_network</text>
</g>
<!-- [root] provider.google -->
<g id="node15" class="node">
<title>[root] provider.google</title>
<polygon fill="none" stroke="#000000" points="2009.4863,-36 1916.1999,-18 2009.4863,0 2102.7727,-18 2009.4863,-36"/>
<text text-anchor="middle" x="2009.4863" y="-13.8" font-family="Times,serif" font-size="14.00" fill="#000000">provider.google</text>
</g>
<!-- [root] google_compute_network.our_development_network&#45;&gt;[root] provider.google -->
<g id="edge11" class="edge">
<title>[root] google_compute_network.our_development_network&#45;&gt;[root] provider.google</title>
<path fill="none" stroke="#000000" d="M1729.3796,-71.9243C1799.641,-58.398 1893.4464,-40.3392 1952.6715,-28.9376"/>
<polygon fill="#000000" stroke="#000000" points="1953.4338,-32.3552 1962.5918,-27.0278 1952.1104,-25.4814 1953.4338,-32.3552"/>
</g>
<!-- [root] google_compute_subnetwork.dev&#45;subnet&#45;&gt;[root] google_compute_network.our_development_network -->
<g id="edge12" class="edge">
<title>[root] google_compute_subnetwork.dev&#45;subnet&#45;&gt;[root] google_compute_network.our_development_network</title>
<path fill="none" stroke="#000000" d="M1851.1835,-143.9243C1810.5368,-133.7626 1759.6579,-121.0429 1717.5241,-110.5094"/>
<polygon fill="#000000" stroke="#000000" points="1718.1194,-107.0506 1707.5691,-108.0207 1716.4216,-113.8416 1718.1194,-107.0506"/>
</g>
<!-- [root] var.gcp_ip_cidr_range -->
<g id="node16" class="node">
<title>[root] var.gcp_ip_cidr_range</title>
<ellipse fill="none" stroke="#000000" cx="1923.4863" cy="-90" rx="111.5447" ry="18"/>
<text text-anchor="middle" x="1923.4863" y="-85.8" font-family="Times,serif" font-size="14.00" fill="#000000">[root] var.gcp_ip_cidr_range</text>
</g>
<!-- [root] google_compute_subnetwork.dev&#45;subnet&#45;&gt;[root] var.gcp_ip_cidr_range -->
<g id="edge13" class="edge">
<title>[root] google_compute_subnetwork.dev&#45;subnet&#45;&gt;[root] var.gcp_ip_cidr_range</title>
<path fill="none" stroke="#000000" d="M1923.4863,-143.8314C1923.4863,-136.131 1923.4863,-126.9743 1923.4863,-118.4166"/>
<polygon fill="#000000" stroke="#000000" points="1926.9864,-118.4132 1923.4863,-108.4133 1919.9864,-118.4133 1926.9864,-118.4132"/>
</g>
<!-- [root] var.subnet_names -->
<g id="node17" class="node">
<title>[root] var.subnet_names</title>
<ellipse fill="none" stroke="#000000" cx="2148.4863" cy="-90" rx="95.65" ry="18"/>
<text text-anchor="middle" x="2148.4863" y="-85.8" font-family="Times,serif" font-size="14.00" fill="#000000">[root] var.subnet_names</text>
</g>
<!-- [root] google_compute_subnetwork.dev&#45;subnet&#45;&gt;[root] var.subnet_names -->
<g id="edge14" class="edge">
<title>[root] google_compute_subnetwork.dev&#45;subnet&#45;&gt;[root] var.subnet_names</title>
<path fill="none" stroke="#000000" d="M1979.9729,-143.9243C2013.621,-133.1569 2056.2444,-119.5174 2090.2047,-108.6501"/>
<polygon fill="#000000" stroke="#000000" points="2091.5339,-111.8997 2099.9914,-105.5184 2089.4004,-105.2327 2091.5339,-111.8997"/>
</g>
<!-- [root] google_container_cluster.kubey -->
<g id="node12" class="node">
<title>[root] google_container_cluster.kubey</title>
<polygon fill="none" stroke="#000000" points="2246.939,-252 2052.0337,-252 2052.0337,-216 2246.939,-216 2246.939,-252"/>
<text text-anchor="middle" x="2149.4863" y="-229.8" font-family="Times,serif" font-size="14.00" fill="#000000">google_container_cluster.kubey</text>
</g>
<!-- [root] google_container_cluster.kubey&#45;&gt;[root] provider.google -->
<g id="edge15" class="edge">
<title>[root] google_container_cluster.kubey&#45;&gt;[root] provider.google</title>
<path fill="none" stroke="#000000" d="M2176.2671,-215.9065C2218.6922,-185.054 2292.7193,-120.865 2253.4863,-72 2232.6019,-45.9883 2148.7686,-31.742 2085.1458,-24.512"/>
<polygon fill="#000000" stroke="#000000" points="2085.4433,-21.0237 2075.121,-23.4111 2084.6791,-27.9819 2085.4433,-21.0237"/>
</g>
<!-- [root] var.client_id -->
<g id="node25" class="node">
<title>[root] var.client_id</title>
<ellipse fill="none" stroke="#000000" cx="1446.4863" cy="-18" rx="76.3312" ry="18"/>
<text text-anchor="middle" x="1446.4863" y="-13.8" font-family="Times,serif" font-size="14.00" fill="#000000">[root] var.client_id</text>
</g>
<!-- [root] provider.azurerm&#45;&gt;[root] var.client_id -->
<g id="edge30" class="edge">
<title>[root] provider.azurerm&#45;&gt;[root] var.client_id</title>
<path fill="none" stroke="#000000" d="M1377.5128,-75.0816C1389.0535,-65.5306 1404.2876,-52.9231 1417.5028,-41.9864"/>
<polygon fill="#000000" stroke="#000000" points="1419.9467,-44.507 1425.4191,-35.4349 1415.4837,-39.1143 1419.9467,-44.507"/>
</g>
<!-- [root] var.client_secret -->
<g id="node26" class="node">
<title>[root] var.client_secret</title>
<ellipse fill="none" stroke="#000000" cx="1631.4863" cy="-18" rx="90.3117" ry="18"/>
<text text-anchor="middle" x="1631.4863" y="-13.8" font-family="Times,serif" font-size="14.00" fill="#000000">[root] var.client_secret</text>
</g>
<!-- [root] provider.azurerm&#45;&gt;[root] var.client_secret -->
<g id="edge31" class="edge">
<title>[root] provider.azurerm&#45;&gt;[root] var.client_secret</title>
<path fill="none" stroke="#000000" d="M1400.2075,-79.2209C1444.3427,-67.538 1515.3816,-48.7336 1567.095,-35.0448"/>
<polygon fill="#000000" stroke="#000000" points="1568.0691,-38.4075 1576.8405,-32.4651 1566.2778,-31.6406 1568.0691,-38.4075"/>
</g>
<!-- [root] var.subscription_id -->
<g id="node27" class="node">
<title>[root] var.subscription_id</title>
<ellipse fill="none" stroke="#000000" cx="1077.4863" cy="-18" rx="100.0106" ry="18"/>
<text text-anchor="middle" x="1077.4863" y="-13.8" font-family="Times,serif" font-size="14.00" fill="#000000">[root] var.subscription_id</text>
</g>
<!-- [root] provider.azurerm&#45;&gt;[root] var.subscription_id -->
<g id="edge32" class="edge">
<title>[root] provider.azurerm&#45;&gt;[root] var.subscription_id</title>
<path fill="none" stroke="#000000" d="M1317.8763,-79.3762C1272.3711,-67.7578 1198.765,-48.9648 1144.9745,-35.231"/>
<polygon fill="#000000" stroke="#000000" points="1145.7275,-31.8111 1135.1725,-32.7284 1143.9958,-38.5935 1145.7275,-31.8111"/>
</g>
<!-- [root] var.tenant_id -->
<g id="node28" class="node">
<title>[root] var.tenant_id</title>
<ellipse fill="none" stroke="#000000" cx="1273.4863" cy="-18" rx="78.2607" ry="18"/>
<text text-anchor="middle" x="1273.4863" y="-13.8" font-family="Times,serif" font-size="14.00" fill="#000000">[root] var.tenant_id</text>
</g>
<!-- [root] provider.azurerm&#45;&gt;[root] var.tenant_id -->
<g id="edge33" class="edge">
<title>[root] provider.azurerm&#45;&gt;[root] var.tenant_id</title>
<path fill="none" stroke="#000000" d="M1341.6671,-75.0816C1330.259,-65.5306 1315.2,-52.9231 1302.1367,-41.9864"/>
<polygon fill="#000000" stroke="#000000" points="1304.2258,-39.1707 1294.3114,-35.4349 1299.7322,-44.538 1304.2258,-39.1707"/>
</g>
<!-- [root] meta.count&#45;boundary (count boundary fixup) -->
<g id="node18" class="node">
<title>[root] meta.count&#45;boundary (count boundary fixup)</title>
<ellipse fill="none" stroke="#000000" cx="1217.4863" cy="-306" rx="191.6931" ry="18"/>
<text text-anchor="middle" x="1217.4863" y="-301.8" font-family="Times,serif" font-size="14.00" fill="#000000">[root] meta.count&#45;boundary (count boundary fixup)</text>
</g>
<!-- [root] meta.count&#45;boundary (count boundary fixup)&#45;&gt;[root] aws_instance.secondserver -->
<g id="edge16" class="edge">
<title>[root] meta.count&#45;boundary (count boundary fixup)&#45;&gt;[root] aws_instance.secondserver</title>
<path fill="none" stroke="#000000" d="M1040.5955,-299.0273C863.057,-291.1107 581.88,-276.0727 339.4863,-252 327.4092,-250.8006 314.7333,-249.3289 302.2212,-247.7486"/>
<polygon fill="#000000" stroke="#000000" points="302.6019,-244.2688 292.2364,-246.461 301.7066,-251.2113 302.6019,-244.2688"/>
</g>
<!-- [root] meta.count&#45;boundary (count boundary fixup)&#45;&gt;[root] aws_security_group.subnetsecurity -->
<g id="edge17" class="edge">
<title>[root] meta.count&#45;boundary (count boundary fixup)&#45;&gt;[root] aws_security_group.subnetsecurity</title>
<path fill="none" stroke="#000000" d="M1058.877,-295.8751C930.4061,-286.9365 744.537,-272.3389 572.2835,-252.0477"/>
<polygon fill="#000000" stroke="#000000" points="572.6104,-248.5621 562.2677,-250.8596 571.7857,-255.5133 572.6104,-248.5621"/>
</g>
<!-- [root] meta.count&#45;boundary (count boundary fixup)&#45;&gt;[root] azurerm_virtual_network.blue_virtual_network -->
<g id="edge18" class="edge">
<title>[root] meta.count&#45;boundary (count boundary fixup)&#45;&gt;[root] azurerm_virtual_network.blue_virtual_network</title>
<path fill="none" stroke="#000000" d="M1312.3606,-290.3327C1377.4241,-279.5883 1464.2594,-265.2485 1534.0348,-253.7259"/>
<polygon fill="#000000" stroke="#000000" points="1534.905,-257.1297 1544.2011,-252.0471 1533.7645,-250.2233 1534.905,-257.1297"/>
</g>
<!-- [root] meta.count&#45;boundary (count boundary fixup)&#45;&gt;[root] google_compute_instance.firstserver -->
<g id="edge19" class="edge">
<title>[root] meta.count&#45;boundary (count boundary fixup)&#45;&gt;[root] google_compute_instance.firstserver</title>
<path fill="none" stroke="#000000" d="M1366.4574,-294.6299C1482.4968,-285.2173 1647.863,-270.5901 1802.5228,-252.0788"/>
<polygon fill="#000000" stroke="#000000" points="1803.1841,-255.5245 1812.6938,-250.8539 1802.347,-248.5747 1803.1841,-255.5245"/>
</g>
<!-- [root] meta.count&#45;boundary (count boundary fixup)&#45;&gt;[root] google_container_cluster.kubey -->
<g id="edge20" class="edge">
<title>[root] meta.count&#45;boundary (count boundary fixup)&#45;&gt;[root] google_container_cluster.kubey</title>
<path fill="none" stroke="#000000" d="M1364.7471,-294.4765C1394.4512,-292.2476 1425.463,-289.989 1454.4863,-288 1712.8171,-270.2963 1781.2136,-281.6986 2042.0568,-252.0963"/>
<polygon fill="#000000" stroke="#000000" points="2042.6781,-255.5481 2052.2153,-250.9339 2041.8822,-248.5935 2042.6781,-255.5481"/>
</g>
<!-- [root] output.aws_cidr_subnet1 -->
<g id="node19" class="node">
<title>[root] output.aws_cidr_subnet1</title>
<ellipse fill="none" stroke="#000000" cx="701.4863" cy="-234" rx="121.2418" ry="18"/>
<text text-anchor="middle" x="701.4863" y="-229.8" font-family="Times,serif" font-size="14.00" fill="#000000">[root] output.aws_cidr_subnet1</text>
</g>
<!-- [root] meta.count&#45;boundary (count boundary fixup)&#45;&gt;[root] output.aws_cidr_subnet1 -->
<g id="edge21" class="edge">
<title>[root] meta.count&#45;boundary (count boundary fixup)&#45;&gt;[root] output.aws_cidr_subnet1</title>
<path fill="none" stroke="#000000" d="M1110.2575,-291.0378C1018.9906,-278.3029 888.9451,-260.157 800.2025,-247.7744"/>
<polygon fill="#000000" stroke="#000000" points="800.5186,-244.2846 790.1309,-246.369 799.5512,-251.2175 800.5186,-244.2846"/>
</g>
<!-- [root] output.first_output -->
<g id="node20" class="node">
<title>[root] output.first_output</title>
<ellipse fill="none" stroke="#000000" cx="1396.4863" cy="-234" rx="98.0985" ry="18"/>
<text text-anchor="middle" x="1396.4863" y="-229.8" font-family="Times,serif" font-size="14.00" fill="#000000">[root] output.first_output</text>
</g>
<!-- [root] meta.count&#45;boundary (count boundary fixup)&#45;&gt;[root] output.first_output -->
<g id="edge22" class="edge">
<title>[root] meta.count&#45;boundary (count boundary fixup)&#45;&gt;[root] output.first_output</title>
<path fill="none" stroke="#000000" d="M1261.2747,-288.3868C1286.9009,-278.079 1319.3618,-265.0221 1346.0544,-254.2855"/>
<polygon fill="#000000" stroke="#000000" points="1347.6327,-257.4232 1355.6042,-250.4442 1345.0204,-250.9289 1347.6327,-257.4232"/>
</g>
<!-- [root] var.aws_ip_cidr_range -->
<g id="node21" class="node">
<title>[root] var.aws_ip_cidr_range</title>
<ellipse fill="none" stroke="#000000" cx="953.4863" cy="-234" rx="112.5139" ry="18"/>
<text text-anchor="middle" x="953.4863" y="-229.8" font-family="Times,serif" font-size="14.00" fill="#000000">[root] var.aws_ip_cidr_range</text>
</g>
<!-- [root] meta.count&#45;boundary (count boundary fixup)&#45;&gt;[root] var.aws_ip_cidr_range -->
<g id="edge23" class="edge">
<title>[root] meta.count&#45;boundary (count boundary fixup)&#45;&gt;[root] var.aws_ip_cidr_range</title>
<path fill="none" stroke="#000000" d="M1154.922,-288.937C1114.4089,-277.888 1061.6967,-263.5119 1020.357,-252.2374"/>
<polygon fill="#000000" stroke="#000000" points="1021.2145,-248.8435 1010.6459,-249.589 1019.3726,-255.5969 1021.2145,-248.8435"/>
</g>
<!-- [root] var.network_name -->
<g id="node22" class="node">
<title>[root] var.network_name</title>
<ellipse fill="none" stroke="#000000" cx="1182.4863" cy="-234" rx="98.0466" ry="18"/>
<text text-anchor="middle" x="1182.4863" y="-229.8" font-family="Times,serif" font-size="14.00" fill="#000000">[root] var.network_name</text>
</g>
<!-- [root] meta.count&#45;boundary (count boundary fixup)&#45;&gt;[root] var.network_name -->
<g id="edge24" class="edge">
<title>[root] meta.count&#45;boundary (count boundary fixup)&#45;&gt;[root] var.network_name</title>
<path fill="none" stroke="#000000" d="M1208.6544,-287.8314C1204.7877,-279.8771 1200.1657,-270.369 1195.8895,-261.5723"/>
<polygon fill="#000000" stroke="#000000" points="1198.957,-259.8768 1191.4372,-252.4133 1192.6614,-262.9371 1198.957,-259.8768"/>
</g>
<!-- [root] output.aws_cidr_subnet1&#45;&gt;[root] aws_subnet.subnet1 -->
<g id="edge25" class="edge">
<title>[root] output.aws_cidr_subnet1&#45;&gt;[root] aws_subnet.subnet1</title>
<path fill="none" stroke="#000000" d="M631.8623,-219.1689C575.2304,-207.1053 495.5079,-190.1229 437.679,-177.8044"/>
<polygon fill="#000000" stroke="#000000" points="438.3809,-174.3754 427.8711,-175.7151 436.9225,-181.2218 438.3809,-174.3754"/>
</g>
<!-- [root] provider.aws (close) -->
<g id="node23" class="node">
<title>[root] provider.aws (close)</title>
<ellipse fill="none" stroke="#000000" cx="388.4863" cy="-306" rx="104.3276" ry="18"/>
<text text-anchor="middle" x="388.4863" y="-301.8" font-family="Times,serif" font-size="14.00" fill="#000000">[root] provider.aws (close)</text>
</g>
<!-- [root] provider.aws (close)&#45;&gt;[root] aws_instance.secondserver -->
<g id="edge26" class="edge">
<title>[root] provider.aws (close)&#45;&gt;[root] aws_instance.secondserver</title>
<path fill="none" stroke="#000000" d="M346.7383,-289.3008C321.9494,-279.3852 290.2267,-266.6961 263.4225,-255.9745"/>
<polygon fill="#000000" stroke="#000000" points="264.3764,-252.5865 253.7917,-252.1222 261.7766,-259.0858 264.3764,-252.5865"/>
</g>
<!-- [root] provider.aws (close)&#45;&gt;[root] aws_security_group.subnetsecurity -->
<g id="edge27" class="edge">
<title>[root] provider.aws (close)&#45;&gt;[root] aws_security_group.subnetsecurity</title>
<path fill="none" stroke="#000000" d="M405.0481,-288.2022C413.1205,-279.5275 422.9735,-268.9391 431.822,-259.4304"/>
<polygon fill="#000000" stroke="#000000" points="434.3996,-261.7982 438.6497,-252.0931 429.2751,-257.0295 434.3996,-261.7982"/>
</g>
<!-- [root] provider.aws (close)&#45;&gt;[root] aws_subnet.subnet1 -->
<g id="edge28" class="edge">
<title>[root] provider.aws (close)&#45;&gt;[root] aws_subnet.subnet1</title>
<path fill="none" stroke="#000000" d="M366.0683,-288.2316C355.8815,-278.71 344.9121,-266.0536 339.4863,-252 331.6236,-231.6342 338.7278,-207.7198 347.2,-189.6629"/>
<polygon fill="#000000" stroke="#000000" points="350.5511,-190.7943 351.9612,-180.2937 344.3106,-187.623 350.5511,-190.7943"/>
</g>
<!-- [root] provider.azurerm (close) -->
<g id="node24" class="node">
<title>[root] provider.azurerm (close)</title>
<ellipse fill="none" stroke="#000000" cx="1582.4863" cy="-306" rx="119.2527" ry="18"/>
<text text-anchor="middle" x="1582.4863" y="-301.8" font-family="Times,serif" font-size="14.00" fill="#000000">[root] provider.azurerm (close)</text>
</g>
<!-- [root] provider.azurerm (close)&#45;&gt;[root] azurerm_virtual_network.blue_virtual_network -->
<g id="edge29" class="edge">
<title>[root] provider.azurerm (close)&#45;&gt;[root] azurerm_virtual_network.blue_virtual_network</title>
<path fill="none" stroke="#000000" d="M1600.4026,-287.8314C1608.8305,-279.2848 1619.0273,-268.9443 1628.2223,-259.6198"/>
<polygon fill="#000000" stroke="#000000" points="1630.7995,-261.9912 1635.3288,-252.4133 1625.8152,-257.0761 1630.7995,-261.9912"/>
</g>
<!-- [root] provider.google (close) -->
<g id="node29" class="node">
<title>[root] provider.google (close)</title>
<ellipse fill="none" stroke="#000000" cx="1923.4863" cy="-306" rx="114.4592" ry="18"/>
<text text-anchor="middle" x="1923.4863" y="-301.8" font-family="Times,serif" font-size="14.00" fill="#000000">[root] provider.google (close)</text>
</g>
<!-- [root] provider.google (close)&#45;&gt;[root] google_compute_instance.firstserver -->
<g id="edge34" class="edge">
<title>[root] provider.google (close)&#45;&gt;[root] google_compute_instance.firstserver</title>
<path fill="none" stroke="#000000" d="M1923.4863,-287.8314C1923.4863,-280.131 1923.4863,-270.9743 1923.4863,-262.4166"/>
<polygon fill="#000000" stroke="#000000" points="1926.9864,-262.4132 1923.4863,-252.4133 1919.9864,-262.4133 1926.9864,-262.4132"/>
</g>
<!-- [root] provider.google (close)&#45;&gt;[root] google_container_cluster.kubey -->
<g id="edge35" class="edge">
<title>[root] provider.google (close)&#45;&gt;[root] google_container_cluster.kubey</title>
<path fill="none" stroke="#000000" d="M1974.2051,-289.8418C2006.4425,-279.5715 2048.5149,-266.1679 2083.3598,-255.0669"/>
<polygon fill="#000000" stroke="#000000" points="2084.5163,-258.3718 2092.982,-252.0014 2082.3914,-251.7021 2084.5163,-258.3718"/>
</g>
<!-- [root] root -->
<g id="node30" class="node">
<title>[root] root</title>
<ellipse fill="none" stroke="#000000" cx="1452.4863" cy="-378" rx="46.8976" ry="18"/>
<text text-anchor="middle" x="1452.4863" y="-373.8" font-family="Times,serif" font-size="14.00" fill="#000000">[root] root</text>
</g>
<!-- [root] root&#45;&gt;[root] meta.count&#45;boundary (count boundary fixup) -->
<g id="edge36" class="edge">
<title>[root] root&#45;&gt;[root] meta.count&#45;boundary (count boundary fixup)</title>
<path fill="none" stroke="#000000" d="M1415.7676,-366.75C1380.558,-355.9624 1326.5914,-339.4279 1283.8446,-326.331"/>
<polygon fill="#000000" stroke="#000000" points="1284.6604,-322.9205 1274.0737,-323.3374 1282.6097,-329.6134 1284.6604,-322.9205"/>
</g>
<!-- [root] root&#45;&gt;[root] provider.aws (close) -->
<g id="edge37" class="edge">
<title>[root] root&#45;&gt;[root] provider.aws (close)</title>
<path fill="none" stroke="#000000" d="M1406.4261,-374.8831C1248.2111,-364.1769 724.1896,-328.7168 496.1105,-313.2828"/>
<polygon fill="#000000" stroke="#000000" points="496.0198,-309.7688 485.8063,-312.5856 495.5472,-316.7528 496.0198,-309.7688"/>
</g>
<!-- [root] root&#45;&gt;[root] provider.azurerm (close) -->
<g id="edge38" class="edge">
<title>[root] root&#45;&gt;[root] provider.azurerm (close)</title>
<path fill="none" stroke="#000000" d="M1479.4224,-363.0816C1497.5619,-353.0351 1521.8079,-339.6065 1542.2258,-328.2981"/>
<polygon fill="#000000" stroke="#000000" points="1543.9544,-331.3418 1551.0066,-323.4349 1540.5629,-325.2182 1543.9544,-331.3418"/>
</g>
<!-- [root] root&#45;&gt;[root] provider.google (close) -->
<g id="edge39" class="edge">
<title>[root] root&#45;&gt;[root] provider.google (close)</title>
<path fill="none" stroke="#000000" d="M1495.9526,-371.3555C1571.8789,-359.7489 1730.2063,-335.546 1831.4267,-320.0728"/>
<polygon fill="#000000" stroke="#000000" points="1831.9872,-323.5279 1841.3434,-318.5569 1830.9293,-316.6083 1831.9872,-323.5279"/>
</g>
</g>
</svg>
